<svg width="32" height="32" viewBox="0 0 32 32" fill="none" xmlns="http://www.w3.org/2000/svg">
  <defs>
    <linearGradient id="vaultGradient" x1="0%" y1="0%" x2="100%" y2="100%">
      <stop offset="0%" stop-color="#ec4899" />
      <stop offset="50%" stop-color="#a855f7" />
      <stop offset="100%" stop-color="#06b6d4" />
    </linearGradient>
  </defs>
  
  <!-- Outer Shield Shape -->
  <path d="M16 2C16 2 10 3.5 5 6.5C5 12 5 19 16 29C27 19 27 12 27 6.5C22 3.5 16 2 16 2Z" fill="url(#vaultGradient)"/>
  
  <!-- Vault Door Circle -->
  <circle cx="16" cy="13" r="5" fill="none" stroke="white" stroke-width="1.5" opacity="0.9"/>
  
  <!-- Vault Handle/Lock -->
  <circle cx="16" cy="13" r="2" fill="white" opacity="0.8"/>
  
  <!-- Lock Keyhole -->
  <path d="M16 12C16.3 12 16.6 12.3 16.6 12.6C16.6 12.8 16.5 13 16.3 13.1L16.5 14C16.5 14.1 16.4 14.2 16.3 14.2H15.7C15.6 14.2 15.5 14.1 15.5 14L15.7 13.1C15.5 13 15.4 12.8 15.4 12.6C15.4 12.3 15.7 12 16 12Z" fill="#1a1a2e" opacity="0.8"/>
  
  <!-- Bottom Security Lines -->
  <line x1="10" y1="20" x2="22" y2="20" stroke="white" stroke-width="1" opacity="0.6"/>
  <line x1="12" y1="22" x2="20" y2="22" stroke="white" stroke-width="1" opacity="0.4"/>
  <line x1="13" y1="24" x2="19" y2="24" stroke="white" stroke-width="1" opacity="0.3"/>
</svg>